<svg width="22" height="22" viewBox="0 0 22 22" fill="none" xmlns="http://www.w3.org/2000/svg">
<path d="M12.1367 2.2002C13.4582 2.2002 14.5425 3.19427 14.708 4.47266H16.4482C18.2963 4.47268 19.7998 5.9763 19.7998 7.8252V10.877C19.7998 10.9341 19.7915 10.99 19.7773 11.0439C19.7252 12.9979 19.6568 15.8777 19.6416 16.1602C19.5967 16.9814 19.2788 17.8293 18.7842 18.4209C18.1045 19.2414 17.23 19.622 16.0645 19.6221C14.625 19.6309 12.9204 19.6309 11.1641 19.6309C9.41464 19.6309 7.6126 19.6309 5.97852 19.6221C4.79625 19.622 3.94821 19.2511 3.25977 18.4209C2.76512 17.8293 2.44726 16.9902 2.38477 16.1602C2.36939 15.8209 2.2751 13.0988 2.22168 11.043C2.20777 10.9893 2.20022 10.9336 2.2002 10.877V7.8252C2.2002 5.97634 3.70731 4.47275 5.56055 4.47266H7.29297C7.45849 3.19431 8.54093 2.20026 9.86328 2.2002H12.1367ZM9.86328 3.52051C9.27081 3.52057 8.77583 3.92595 8.62793 4.47266H13.3711C13.2232 3.92591 12.7284 3.52052 12.1367 3.52051H9.86328Z" fill="white"/>
<path opacity="0.4" d="M2.19995 10.1926C2.24397 12.2511 2.36723 15.7719 2.38484 16.1602C2.44735 16.9905 2.76519 17.8295 3.26 18.4212C3.9485 19.2514 4.79636 19.6221 5.97878 19.6221C7.61287 19.6309 9.41424 19.6309 11.1637 19.6309C12.9201 19.6309 14.6247 19.6309 16.0642 19.6221C17.2299 19.6221 18.1041 19.2417 18.7838 18.4212C19.2786 17.8295 19.5965 16.9817 19.6414 16.1602C19.659 15.8336 19.747 12.0116 19.7999 10.1926H2.19995Z" fill="#2D99FF"/>
<path d="M10.3398 13.9836V15.1229C10.3398 15.4874 10.6357 15.7832 11.0002 15.7832C11.3647 15.7832 11.6605 15.4874 11.6605 15.1229V13.9836C11.6605 13.6191 11.3647 13.3232 11.0002 13.3232C10.6357 13.3232 10.3398 13.6191 10.3398 13.9836Z" fill="#2D99FF"/>
<path d="M12.1367 2.19995C13.4582 2.19995 14.542 3.19396 14.7075 4.47236H16.4482C18.2962 4.47236 19.8 5.97614 19.8 7.82506V10.8766C19.8 11.0985 19.6882 11.3054 19.5042 11.4278C17.6887 12.6296 15.5334 13.4299 13.2724 13.7425C13.2416 13.7469 13.2117 13.7486 13.1817 13.7486C12.8833 13.7486 12.6165 13.547 12.5417 13.2512C12.3638 12.5504 11.7273 12.06 10.9956 12.06C10.2543 12.06 9.62479 12.5398 9.42933 13.2547C9.34129 13.5743 9.03402 13.7786 8.70121 13.7345C6.45522 13.4211 4.30872 12.6243 2.49678 11.4278C2.31101 11.3063 2.20007 11.0985 2.20007 10.8766V7.82506C2.20007 5.97614 3.70738 4.47236 5.5607 4.47236H7.29251C7.45804 3.19396 8.54097 2.19995 9.86339 2.19995H12.1367ZM12.1367 3.5206H9.86339C9.27085 3.5206 8.77605 3.92561 8.62814 4.47236H13.371C13.2231 3.92561 12.7283 3.5206 12.1367 3.5206Z" fill="#2D99FF"/>
</svg>
