<svg width="16" height="16" viewBox="0 0 16 16" fill="none" xmlns="http://www.w3.org/2000/svg">
<path fill-rule="evenodd" clip-rule="evenodd" d="M15.0076 0.993003C14.6171 0.602649 13.984 0.602536 13.5935 0.993003L8.00027 6.58627L2.407 0.993003L2.33083 0.924644C1.93806 0.604294 1.35906 0.626887 0.992942 0.993003C0.626826 1.35912 0.604233 1.93812 0.924583 2.33089L0.992942 2.40707L6.5862 8.00033L0.992942 13.5936C0.602475 13.9841 0.602588 14.6171 0.992942 15.0077C1.38347 15.3982 2.01648 15.3982 2.407 15.0077L8.00027 9.41439L13.5935 15.0077L13.6697 15.077C14.0625 15.3972 14.6415 15.3737 15.0076 15.0077C15.3737 14.6416 15.3972 14.0625 15.0769 13.6698L15.0076 13.5936L9.41433 8.00033L15.0076 2.40707C15.3981 2.01654 15.3981 1.38353 15.0076 0.993003Z" fill="#1A1926"/>
</svg>
