<svg width="56" height="55" viewBox="0 0 56 55" fill="none" xmlns="http://www.w3.org/2000/svg">
<g clip-path="url(#clip0_7623_12069)">
<rect y="-1" width="56" height="56" rx="14" fill="white"/>
<rect y="-1" width="56" height="56" rx="14" fill="url(#paint0_linear_7623_12069)" fill-opacity="0.7"/>
<g filter="url(#filter0_d_7623_12069)">
<path d="M27.3808 15.5088C27.7652 14.8398 28.7303 14.8396 29.1149 15.5086L41.1493 36.4425C41.5301 37.105 41.0577 37.9323 40.2936 37.9394C38.6448 37.9546 36.6348 37.9699 34.4285 37.9821C34.0694 37.9841 33.7368 37.7932 33.5572 37.4823L24.4213 21.6602C24.2431 21.3515 24.2426 20.9712 24.4202 20.6621L27.3808 15.5088Z" fill="white"/>
<path d="M20.1405 28.2468C19.7826 28.2468 19.4519 28.4381 19.2735 28.7484L14.8435 36.455C14.4643 37.1147 14.9312 37.9387 15.692 37.9491C17.5011 37.9736 19.495 37.9891 21.5651 37.9977C21.9276 37.9993 22.2625 37.8042 22.4403 37.4882L26.7999 29.737C27.1748 29.0704 26.6931 28.2468 25.9283 28.2468H20.1405Z" fill="white"/>
</g>
</g>
<defs>
<filter id="filter0_d_7623_12069" x="10.709" y="15.007" width="34.575" height="30.9908" filterUnits="userSpaceOnUse" color-interpolation-filters="sRGB">
<feFlood flood-opacity="0" result="BackgroundImageFix"/>
<feColorMatrix in="SourceAlpha" type="matrix" values="0 0 0 0 0 0 0 0 0 0 0 0 0 0 0 0 0 0 127 0" result="hardAlpha"/>
<feOffset dy="4"/>
<feGaussianBlur stdDeviation="2"/>
<feComposite in2="hardAlpha" operator="out"/>
<feColorMatrix type="matrix" values="0 0 0 0 0 0 0 0 0 0 0 0 0 0 0 0 0 0 0.05 0"/>
<feBlend mode="normal" in2="BackgroundImageFix" result="effect1_dropShadow_7623_12069"/>
<feBlend mode="normal" in="SourceGraphic" in2="effect1_dropShadow_7623_12069" result="shape"/>
</filter>
<linearGradient id="paint0_linear_7623_12069" x1="9.88235" y1="55.4706" x2="46.8042" y2="21.0572" gradientUnits="userSpaceOnUse">
<stop stop-color="#307CF4"/>
<stop offset="0.302083" stop-color="#863AF7"/>
<stop offset="0.640221" stop-color="#BC37E2"/>
<stop offset="1" stop-color="#EF615C"/>
</linearGradient>
<clipPath id="clip0_7623_12069">
<rect y="-1" width="56" height="56" rx="14" fill="white"/>
</clipPath>
</defs>
</svg>
